<svg width="1238" height="504" viewBox="0 0 1238 504" fill="none" xmlns="http://www.w3.org/2000/svg">
<line x1="119.5" y1="2.18557e-08" x2="119.5" y2="504" stroke="#7C86E4"/>
<line x1="311.5" y1="252" x2="311.5" y2="504" stroke="#7C86E4"/>
<line x1="503.5" y1="2.18557e-08" x2="503.5" y2="504" stroke="#7C86E4"/>
<line x1="887.5" y1="2.18557e-08" x2="887.5" y2="445" stroke="#7C86E4"/>
<line x1="695.5" y1="2.18557e-08" x2="695.5" y2="245" stroke="#7C86E4"/>
<line x1="1079.5" y1="253" x2="1079.5" y2="504" stroke="#7C86E4"/>
<line x1="1078" y1="249.5" x2="1238" y2="249.5" stroke="#7C86E4"/>
<line x1="311" y1="250.5" x2="695" y2="250.5" stroke="#7C86E4"/>
<line x1="118" y1="128.5" x2="4.37114e-08" y2="128.5" stroke="#7C86E4"/>
<line x1="118" y1="444.5" x2="311" y2="444.5" stroke="#7C86E4"/>
<line x1="887" y1="443.5" x2="1078" y2="443.5" stroke="#7C86E4"/>
<line x1="1156.5" y1="248" x2="1156.5" y2="2.18557e-08" stroke="#7C86E4"/>
<rect x="106" y="117" width="24" height="24" fill="#7C86E4"/>
<rect x="106" y="433" width="24" height="24" fill="#7C86E4"/>
<rect x="299" y="433" width="24" height="24" fill="#7C86E4"/>
<rect x="299" y="239" width="24" height="24" fill="#7C86E4"/>
<rect x="491" y="239" width="24" height="24" fill="#7C86E4"/>
<rect x="683" y="239" width="24" height="24" fill="#7C86E4"/>
<rect x="877" y="432" width="24" height="24" fill="#7C86E4"/>
<rect x="1066" y="432" width="24" height="24" fill="#7C86E4"/>
<rect x="1067" y="239" width="24" height="24" fill="#7C86E4"/>
<rect x="1145" y="237" width="24" height="24" fill="#7C86E4"/>
</svg>
