<svg width="127" height="31" viewBox="0 0 127 31" fill="none" xmlns="http://www.w3.org/2000/svg">
<path d="M65.9932 1H125.6V27.7925H98.0748" stroke="#F6B47D" stroke-width="2" stroke-miterlimit="10"/>
<path d="M48.2268 22.9999C51.1415 23.2646 44.6142 23.6606 42.2755 22.6029C39.9536 22.4645 37.6709 23.3846 35.8555 25.1906C34.7925 26.5129 35.8555 23.3023 38.1933 22.4146C37.7686 21.2064 37.0698 20.9417 35.9463 20.9417C33.7932 20.666 31.6217 21.1658 29.6904 22.3815L28.5366 23.1802C29.2769 22.0037 29.7956 20.6356 30.0545 19.1766C30.0574 17.5149 29.9253 15.857 29.6601 14.2283C29.5568 13.0445 29.2459 11.9034 28.7494 10.8854C28.2487 9.9977 28.3092 9.39299 27.702 8.73238C27.6868 8.70928 27.6774 8.68106 27.6751 8.65131C27.6728 8.62156 27.6777 8.59163 27.6891 8.56533C27.7005 8.53903 27.7179 8.51754 27.7392 8.50361C27.7604 8.48967 27.7845 8.48392 27.8084 8.48708L30.0554 9.31769C30.6782 10.0353 31.5733 8.31708 36.7955 9.18534C42.0178 10.0536 44.2189 7.2868 44.2189 7.2868C43.8804 7.99151 43.6875 8.78964 43.6576 9.60977C43.7602 11.0407 43.709 12.4822 43.5054 13.8963C43.2302 15.5587 42.5946 18.467 43.5054 19.5623C44.4161 20.6576 44.5381 20.6576 44.5381 20.6576" fill="#F6B47D"/>
<path d="M0.740516 23.0167C-2.18565 23.2051 4.34808 23.6741 6.66796 22.6215C8.99149 22.4793 11.277 23.3934 13.0955 25.1921C14.1414 26.508 13.0955 23.313 10.7609 22.4297C11.2463 21.2273 11.8829 21.0013 12.9892 20.8515C15.1399 20.5903 17.3061 21.0924 19.2354 22.2991C19.9635 22.7691 20.4031 23.0939 20.4031 23.0939L19.675 19.9556C19.8417 15.8205 19.8582 15.2199 19.8582 15.2199C19.885 14.1648 19.9865 13.1147 20.1613 12.0816C20.2904 10.8584 20.6659 9.69522 21.253 8.69924C21.2703 8.67996 21.282 8.65418 21.2863 8.62587C21.2906 8.59756 21.2873 8.56827 21.2769 8.5425C21.2665 8.51673 21.2496 8.4959 21.2287 8.48319C21.2079 8.47049 21.1842 8.46661 21.1614 8.47216L18.9176 9.29874C18.2765 10.0129 17.3258 8.30299 12.1869 9.16703C7.04804 10.0311 4.77304 7.2868 4.77304 7.2868C5.13614 8.06905 5.31953 8.95961 5.30332 9.8619C5.20107 11.2859 5.25219 12.7204 5.45536 14.1276C5.68408 15.9964 5.68408 17.8972 5.45536 19.766C5.24288 21.6451 4.72725 21.8892 4.72725 21.8892" fill="#0E2536"/>
<path d="M63.5154 20H60.9685L56.3513 12.9609C56.0805 12.5495 55.893 12.2396 55.7888 12.0312H55.7576C55.7992 12.4271 55.8201 13.0312 55.8201 13.8438V20H53.4373V8.79688H56.156L60.6013 15.6172C60.8044 15.9245 60.9919 16.2292 61.1638 16.5312H61.1951C61.1534 16.2708 61.1326 15.7578 61.1326 14.9922V8.79688H63.5154V20ZM70.8123 20.1953C69.2081 20.1953 67.9008 19.6745 66.8904 18.6328C65.88 17.5807 65.3748 16.2188 65.3748 14.5469C65.3748 12.7812 65.8878 11.349 66.9138 10.25C67.9347 9.15625 69.294 8.60938 70.9919 8.60938C72.5909 8.60938 73.8826 9.13281 74.8669 10.1797C75.8565 11.2214 76.3513 12.6016 76.3513 14.3203C76.3513 16.0755 75.8383 17.4948 74.8123 18.5781C74.7758 18.6146 74.7419 18.651 74.7107 18.6875C74.6794 18.7188 74.6456 18.75 74.6091 18.7812L77.4451 21.5078H73.9138L72.4294 20C71.9399 20.1302 71.4008 20.1953 70.8123 20.1953ZM70.9216 10.7812C70.0414 10.7812 69.3383 11.1146 68.8123 11.7812C68.2914 12.4427 68.031 13.3203 68.031 14.4141C68.031 15.5234 68.2914 16.401 68.8123 17.0469C69.3331 17.6927 70.0154 18.0156 70.8591 18.0156C71.7289 18.0156 72.419 17.7031 72.9294 17.0781C73.4399 16.4427 73.6951 15.5703 73.6951 14.4609C73.6951 13.3047 73.4477 12.401 72.9529 11.75C72.4633 11.1042 71.7862 10.7812 70.9216 10.7812ZM87.9138 20H85.1638L84.3669 17.5078H80.3826L79.5935 20H76.8591L80.9373 8.79688H83.9294L87.9138 20ZM83.7888 15.5703L82.5857 11.8047C82.4972 11.5234 82.4347 11.1875 82.3982 10.7969H82.3357C82.3097 11.125 82.2445 11.4505 82.1404 11.7734L80.9216 15.5703H83.7888ZM89.3123 20V8.79688H93.3904C94.6404 8.79688 95.6013 9.02604 96.2732 9.48438C96.9451 9.94271 97.281 10.5885 97.281 11.4219C97.281 12.026 97.0753 12.5547 96.6638 13.0078C96.2576 13.4609 95.7367 13.776 95.1013 13.9531V13.9844C95.8982 14.0833 96.5336 14.3776 97.0076 14.8672C97.4867 15.3568 97.7263 15.9531 97.7263 16.6562C97.7263 17.6823 97.3591 18.4974 96.6248 19.1016C95.8904 19.7005 94.8878 20 93.6169 20H89.3123ZM91.8357 10.6562V13.3125H92.9451C93.4659 13.3125 93.8748 13.1875 94.1716 12.9375C94.4737 12.6823 94.6248 12.3333 94.6248 11.8906C94.6248 11.0677 94.0102 10.6562 92.781 10.6562H91.8357ZM91.8357 15.1875V18.1406H93.2029C93.7862 18.1406 94.2419 18.0052 94.5701 17.7344C94.9034 17.4635 95.0701 17.0938 95.0701 16.625C95.0701 16.1771 94.906 15.8255 94.5779 15.5703C94.255 15.3151 93.8018 15.1875 93.2185 15.1875H91.8357ZM109.429 20H106.679L105.883 17.5078H101.898L101.109 20H98.3748L102.453 8.79688H105.445L109.429 20ZM105.304 15.5703L104.101 11.8047C104.013 11.5234 103.95 11.1875 103.914 10.7969H103.851C103.825 11.125 103.76 11.4505 103.656 11.7734L102.437 15.5703H105.304Z" fill="#0E2536"/>
</svg>
