<svg width="352" height="145" viewBox="0 0 352 145" fill="none" xmlns="http://www.w3.org/2000/svg">
<path d="M346.711 125.057C367.659 127.164 320.747 130.315 303.938 121.897C287.251 120.796 270.845 128.118 257.797 142.492C250.157 153.016 257.797 127.463 274.599 120.399C271.547 110.782 266.524 108.676 258.45 108.676C242.975 106.482 227.369 110.46 213.488 120.135L205.196 126.492C210.516 117.128 214.244 106.24 216.105 94.6282C216.126 81.4027 215.176 68.2083 213.271 55.2459C212.528 45.8245 210.293 36.7423 206.725 28.64C203.126 21.5753 203.561 16.7626 199.198 11.505C199.088 11.3212 199.021 11.0965 199.004 10.8598C198.987 10.623 199.022 10.3848 199.104 10.1755C199.186 9.96612 199.312 9.79513 199.464 9.68423C199.617 9.57333 199.79 9.52754 199.962 9.55271L216.112 16.1633C220.587 21.875 227.021 8.19971 264.553 15.11C302.086 22.0203 317.906 0 317.906 0C315.473 5.60862 314.087 11.9607 313.872 18.4879C314.609 29.8763 314.241 41.3491 312.778 52.6035C310.8 65.8338 306.232 88.9801 312.778 97.6974C319.323 106.415 320.2 106.415 320.2 106.415" fill="#0E2536"/>
<path d="M5.32216 125.19C-15.7085 126.69 31.2501 130.422 47.9233 122.045C64.6227 120.914 81.0489 128.188 94.1184 142.504C101.635 152.977 94.1184 127.549 77.3399 120.518C80.8286 110.949 85.4033 109.151 93.3548 107.958C108.812 105.879 124.381 109.875 138.247 119.479C143.48 123.22 146.639 125.805 146.639 125.805L141.406 100.828C142.604 67.9175 142.723 63.1372 142.723 63.1372C142.916 54.7403 143.645 46.3828 144.901 38.1607C145.829 28.4256 148.528 19.168 152.748 11.2413C152.872 11.0878 152.956 10.8826 152.987 10.6573C153.018 10.432 152.994 10.1989 152.919 9.9938C152.845 9.78869 152.723 9.62288 152.573 9.52177C152.423 9.42065 152.253 9.38981 152.089 9.43399L135.963 16.0125C131.355 21.6964 124.522 8.08757 87.5887 14.9643C50.655 21.841 34.3044 0 34.3044 0C36.914 6.22567 38.232 13.3134 38.1155 20.4945C37.3806 31.8275 37.748 43.2444 39.2082 54.4442C40.8521 69.3174 40.8521 84.4458 39.2082 99.3189C37.6811 114.274 33.9752 116.217 33.9752 116.217" fill="#2E3AA5"/>
</svg>
